<svg xmlns="http://www.w3.org/2000/svg" width="460" height="155" viewBox="0 0 460 155">
    <g fill="none" fill-rule="evenodd">
        <path fill="#1BCC8E" d="M110 136H42v-5.667A8.333 8.333 0 0 1 50.333 122h51.334a8.333 8.333 0 0 1 8.333 8.333V136zM280 88l-4.26 14h-18.567L253 88h21.051"/>
        <path fill="#484848" d="M9 116h167v-7H9v7zm168 2H8a1 1 0 0 1-1-1v-9a1 1 0 0 1 1-1h169a1 1 0 0 1 1 1v9a1 1 0 0 1-1 1zM172 141H13a1 1 0 0 1-1-1v-9a1 1 0 0 1 1-1h6a1 1 0 1 1 0 2h-5v7h157v-7h-4a1 1 0 1 1 0-2h5a1 1 0 0 1 1 1v9a1 1 0 0 1-1 1"/>
        <path fill="#484848" d="M168 132h-57a1 1 0 1 1 0-2h56v-12H18v12h23a1 1 0 1 1 0 2H17a1 1 0 0 1-1-1v-14a1 1 0 0 1 1-1h151a1 1 0 0 1 1 1v14a1 1 0 0 1-1 1M189 155H17a1 1 0 0 1-1-1v-14a1 1 0 0 1 1-1h151a1 1 0 1 1 0 2H18v12h171a1 1 0 1 1 0 2"/>
        <path fill="#484848" d="M241 155h-54a1 1 0 1 1 0-2h54a1 1 0 1 1 0 2M187 143a1 1 0 0 1-1-1v-34a1 1 0 0 1 1-1h54a1 1 0 0 1 1 1v17a1 1 0 1 1-2 0v-16h-52v33a1 1 0 0 1-1 1"/>
        <path fill="#484848" d="M238.005 155c-5.016 0-13.597-2.484-23.53-5.361-13.256-3.837-29.752-8.614-42.48-8.614-.55 0-.995-.452-.995-1.012s.446-1.013.995-1.013c13.006 0 29.65 4.82 43.023 8.692 9.791 2.834 18.247 5.283 22.987 5.283.55 0 .995.452.995 1.012s-.445 1.013-.995 1.013"/>
        <path fill="#484848" d="M198 145a1 1 0 0 1-1-1v-30a1 1 0 1 1 2 0v30a1 1 0 0 1-1 1M208 148a1 1 0 0 1-1-1v-39a1 1 0 1 1 2 0v39a1 1 0 0 1-1 1M219 136a1 1 0 0 1-1-1v-27a1 1 0 1 1 2 0v27a1 1 0 0 1-1 1M230 126a1 1 0 0 1-1-1v-17a1 1 0 1 1 2 0v17a1 1 0 0 1-1 1M43 135h66v-4.667c0-4.043-3.29-7.333-7.333-7.333H50.333C46.29 123 43 126.29 43 130.333V135zm67 2H42a1 1 0 0 1-1-1v-5.667c0-5.146 4.187-9.333 9.333-9.333h51.334c5.146 0 9.333 4.187 9.333 9.333V136a1 1 0 0 1-1 1z"/>
        <path fill="#484848" d="M49 137a1 1 0 0 1-1-1v-14a1 1 0 1 1 2 0v14a1 1 0 0 1-1 1M59 134a1 1 0 0 1-1-1v-11a1 1 0 1 1 2 0v11a1 1 0 0 1-1 1M69 136v-14a1 1 0 1 1 2 0v14a1 1 0 1 1-2 0zM81 137a1 1 0 0 1-1-1v-10a1 1 0 1 1 2 0v10a1 1 0 0 1-1 1M92 137a1 1 0 0 1-1-1v-14a1 1 0 1 1 2 0v14a1 1 0 0 1-1 1M103 137a1 1 0 0 1-1-1v-14a1 1 0 1 1 2 0v14a1 1 0 0 1-1 1"/>
        <path fill="#484848" d="M97 132H46a1 1 0 1 1 0-2h51a1 1 0 1 1 0 2M157 128a1 1 0 0 1-1-1v-10a1 1 0 1 1 2 0v10a1 1 0 0 1-1 1M146 132a1 1 0 0 1-1-1v-14a1 1 0 1 1 2 0v14a1 1 0 0 1-1 1M135 125a1 1 0 0 1-1-1v-7a1 1 0 1 1 2 0v7a1 1 0 0 1-1 1M124 132a1 1 0 0 1-1-1v-14a1 1 0 1 1 2 0v14a1 1 0 0 1-1 1M113 129a1 1 0 0 1-1-1v-11a1 1 0 1 1 2 0v11a1 1 0 0 1-1 1M103 123a1 1 0 0 1-1-1v-5a1 1 0 1 1 2 0v5a1 1 0 0 1-1 1M92 122a1 1 0 0 1-1-1v-4a1 1 0 1 1 2 0v4a1 1 0 0 1-1 1M81 122a1 1 0 0 1-1-1v-4a1 1 0 1 1 2 0v4a1 1 0 0 1-1 1M70 122a1 1 0 0 1-1-1v-4a1 1 0 1 1 2 0v4a1 1 0 0 1-1 1M59 122a1 1 0 0 1-1-1v-4a1 1 0 1 1 2 0v4a1 1 0 0 1-1 1M49 122a1 1 0 0 1-1-1v-4a1 1 0 1 1 2 0v4a1 1 0 0 1-1 1M38 132a1 1 0 0 1-1-1v-14a1 1 0 1 1 2 0v14a1 1 0 0 1-1 1M28 132a1 1 0 0 1-1-1v-10a1 1 0 1 1 2 0v10a1 1 0 0 1-1 1M278 155h-48a1 1 0 0 1-1-1v-19a1 1 0 1 1 2 0v18h46v-18a1 1 0 1 1 2 0v19a1 1 0 0 1-1 1"/>
        <path fill="#484848" d="M285 136h-14a1 1 0 1 1 0-2h13v-8h-58v8h39a1 1 0 1 1 0 2h-40a1 1 0 0 1-1-1v-10a1 1 0 0 1 1-1h60a1 1 0 0 1 1 1v10a1 1 0 0 1-1 1"/>
        <path fill="#484848" d="M256 124h21v-21h-21v21zm22 2h-23a1 1 0 0 1-1-1v-23a1 1 0 0 1 1-1h23a1 1 0 0 1 1 1v23a1 1 0 0 1-1 1z"/>
        <path fill="#484848" d="M275.738 103h-18.564a1 1 0 0 1-.96-.715l-4.172-14a.997.997 0 0 1 .96-1.285h21.047a1 1 0 1 1 0 2h-19.704l3.576 12h17.075l4.044-13.291a1.001 1.001 0 1 1 1.917.582l-4.26 14a1.002 1.002 0 0 1-.96.709"/>
        <path fill="#484848" d="M253.002 88.999a1 1 0 0 1-.955-1.299l1.255-4a1 1 0 0 1 .955-.7h24.575c.444 0 .837.294.961.72l1.167 4a.999.999 0 0 1-.682 1.239.997.997 0 0 1-1.241-.681L278.081 85h-23.088l-1.036 3.298a1 1 0 0 1-.955.7"/>
        <path fill="#484848" d="M260.999 99a1 1 0 0 1-.994-.9l-1-10.002a1 1 0 0 1 .895-1.095c.557-.041 1.04.347 1.095.895l1 10.002a1 1 0 0 1-.996 1.1M267 99a1 1 0 0 1-1-1V72a1 1 0 1 1 2 0v26a1 1 0 0 1-1 1M135 131a1 1 0 0 1-1-1v-2a1 1 0 1 1 2 0v2a1 1 0 0 1-1 1M17 155H1a1 1 0 1 1 0-2h16a1 1 0 1 1 0 2M303 155h-25a1 1 0 1 1 0-2h25a1 1 0 1 1 0 2M267 113h-12a1 1 0 1 1 0-2h12a1 1 0 1 1 0 2M278 148h-8a1 1 0 1 1 0-2h8a1 1 0 1 1 0 2"/>
        <path fill="#1BCC8E" d="M393 117.644v-6.932c0-4.09-1.964-7.718-5-10v-6.214c0-4.817-3.634-9.044-8.443-9.334A9.001 9.001 0 0 0 370 94.147v33.97c0 6.84 4.767 12.949 11.506 14.124 8.861 1.543 16.554-5.236 16.554-13.81 0-4.337-1.968-8.214-5.06-10.787"/>
        <path fill="#484848" d="M378.997 86.147c-2.05 0-3.98.761-5.48 2.175A7.92 7.92 0 0 0 371 94.148v33.97c0 6.535 4.49 12.06 10.678 13.138 3.867.674 7.78-.363 10.732-2.847a13.006 13.006 0 0 0 4.65-9.977c0-3.882-1.713-7.534-4.7-10.019a1.001 1.001 0 0 1-.36-.769v-6.932c0-3.65-1.677-7.003-4.6-9.2a.998.998 0 0 1-.4-.8v-6.213c0-4.42-3.296-8.083-7.504-8.337a8.363 8.363 0 0 0-.499-.015m5 57.31c-.885 0-1.774-.077-2.663-.23-7.147-1.247-12.334-7.6-12.334-15.109v-33.97c0-2.745 1.146-5.399 3.145-7.28a9.927 9.927 0 0 1 7.471-2.702c5.263.317 9.384 4.856 9.384 10.333v5.725c3.185 2.578 5 6.372 5 10.488v6.473a14.99 14.99 0 0 1 5.06 11.246c0 4.448-1.955 8.643-5.362 11.508a15.045 15.045 0 0 1-9.702 3.518"/>
        <path fill="#484848" d="M381 153.68a1 1 0 0 1-1-1v-56a.321.321 0 0 0-.642 0 1 1 0 1 1-2 0 2.324 2.324 0 0 1 2.322-2.321 2.323 2.323 0 0 1 2.32 2.32v56a1 1 0 0 1-1 1"/>
        <path fill="#484848" d="M381.095 110.095a.999.999 0 0 1-.707-1.707l4.49-4.491a.999.999 0 1 1 1.414 1.414l-4.49 4.49a.997.997 0 0 1-.707.294M381.764 129.764a.999.999 0 0 1-.707-1.707l7.123-7.122a.999.999 0 1 1 1.414 1.414l-7.123 7.122a.997.997 0 0 1-.707.293"/>
        <g>
            <path fill="#1BCC8E" d="M433 117.644v-6.932c0-4.09-1.964-7.718-5-10v-6.214c0-4.817-3.634-9.044-8.443-9.334A9.001 9.001 0 0 0 410 94.147v33.97c0 6.84 4.767 12.949 11.506 14.124 8.861 1.543 16.554-5.236 16.554-13.81 0-4.337-1.968-8.214-5.06-10.787"/>
            <path fill="#484848" d="M418.997 86.147c-2.05 0-3.98.761-5.48 2.175A7.92 7.92 0 0 0 411 94.148v33.97c0 6.535 4.49 12.06 10.678 13.138 3.863.674 7.78-.363 10.732-2.847a13.006 13.006 0 0 0 4.65-9.977c0-3.882-1.713-7.534-4.7-10.019a1.001 1.001 0 0 1-.36-.769v-6.932c0-3.65-1.677-7.003-4.6-9.2a.998.998 0 0 1-.4-.8v-6.213c0-4.42-3.296-8.083-7.504-8.337a8.363 8.363 0 0 0-.499-.015m5 57.31c-.885 0-1.774-.077-2.663-.23-7.147-1.247-12.334-7.6-12.334-15.109v-33.97c0-2.745 1.146-5.399 3.145-7.28a9.927 9.927 0 0 1 7.471-2.702c5.263.317 9.384 4.856 9.384 10.333v5.725c3.185 2.578 5 6.372 5 10.488v6.473a14.99 14.99 0 0 1 5.06 11.246c0 4.448-1.955 8.643-5.362 11.508a15.045 15.045 0 0 1-9.702 3.518"/>
            <path fill="#484848" d="M421 153.68a1 1 0 0 1-1-1v-56a.321.321 0 0 0-.642 0 1 1 0 1 1-2 0 2.324 2.324 0 0 1 2.322-2.321 2.323 2.323 0 0 1 2.32 2.32v56a1 1 0 0 1-1 1"/>
            <path fill="#484848" d="M421.095 117.095a.999.999 0 0 1-.707-1.707l4.49-4.491a.999.999 0 1 1 1.414 1.414l-4.49 4.49a.997.997 0 0 1-.707.294M421.264 132.264a.999.999 0 0 1-.707-1.707l7.623-7.622a.999.999 0 1 1 1.414 1.414l-7.623 7.622a.997.997 0 0 1-.707.293"/>
        </g>
        <path fill="#484848" d="M459.216 155H329.784c-.433 0-.784-.447-.784-1 0-.553.35-1 .784-1h129.432c.433 0 .784.447.784 1 0 .553-.35 1-.784 1"/>
        <g>
            <path fill="#FFF" d="M233.894 21.856c.202-.82.32-1.675.32-2.559 0-5.91-4.791-10.702-10.702-10.702-.683 0-1.35.071-2 .193C219.092 4.162 214.252 1 208.668 1c-8.008 0-14.5 6.492-14.5 14.5 0 2.521.646 4.892 1.779 6.958a4.136 4.136 0 0 0-1.78 3.4A4.143 4.143 0 0 0 198.31 30c.236 0 .465-.027.69-.065V30h33.833a4.142 4.142 0 1 0 1.061-8.144"/>
            <path fill="#484848" d="M199.353 29h33.48a3.147 3.147 0 0 0 3.143-3.143 3.144 3.144 0 0 0-2.339-3.034 1 1 0 0 1-.715-1.206 9.685 9.685 0 0 0 .291-2.319c0-5.35-4.352-9.702-9.702-9.702-.587 0-1.196.058-1.814.175a1.007 1.007 0 0 1-1.07-.519A13.465 13.465 0 0 0 208.666 2c-7.445 0-13.5 6.056-13.5 13.5 0 2.263.572 4.503 1.655 6.478a.998.998 0 0 1-.306 1.3 3.148 3.148 0 0 0-1.35 2.579A3.147 3.147 0 0 0 198.31 29c.18 0 .353-.021.524-.051a1.03 1.03 0 0 1 .52.051m33.48 2h-33.834c-.076 0-.15-.009-.222-.024a4.734 4.734 0 0 1-.468.024 5.149 5.149 0 0 1-5.143-5.143c0-1.381.558-2.694 1.525-3.652a15.534 15.534 0 0 1-1.525-6.705c0-8.547 6.954-15.5 15.5-15.5a15.456 15.456 0 0 1 13.382 7.691c.494-.063.985-.095 1.463-.095 6.452 0 11.702 5.25 11.702 11.702 0 .631-.055 1.273-.166 1.921a5.145 5.145 0 0 1 2.93 4.638A5.15 5.15 0 0 1 232.831 31"/>
        </g>
        <g>
            <path fill="#FFF" d="M332.616 53.332c-.003-.111-.017-.22-.017-.332 0-6.075 4.836-11 10.801-11s10.8 4.925 10.8 11c0 .112-.014.221-.017.332A5.476 5.476 0 0 1 357.8 58.5c0 2.828-2.104 5.131-4.8 5.438V64h-18v-.06c-.199.024-.395.06-.6.06-2.982 0-5.4-2.463-5.4-5.5a5.476 5.476 0 0 1 3.616-5.168"/>
            <path fill="#484848" d="M335.34 63h17.325a.925.925 0 0 1 .222-.055c2.23-.255 3.913-2.166 3.913-4.445 0-1.896-1.187-3.594-2.953-4.227a1 1 0 0 1-.663-.967L353.2 53c0-5.514-4.396-10-9.8-10-5.404 0-9.8 4.486-9.8 10l.016.306a.999.999 0 0 1-.662.967c-1.767.633-2.954 2.332-2.954 4.227 0 2.481 1.974 4.5 4.4 4.5.107 0 .209-.017.31-.03l.173-.023a.986.986 0 0 1 .457.053zm17.66.938h.01-.01zM353 65h-18c-.075 0-.147-.008-.218-.023a3.693 3.693 0 0 1-.381.023c-3.53 0-6.401-2.916-6.401-6.5a6.504 6.504 0 0 1 3.604-5.822C331.773 46.209 336.999 41 343.4 41c6.4 0 11.626 5.209 11.795 11.677A6.504 6.504 0 0 1 358.8 58.5c0 3.186-2.282 5.875-5.36 6.387A.923.923 0 0 1 353 65zM360 70h-16a1 1 0 1 1 0-2h16a1 1 0 1 1 0 2M346 75h-7a1 1 0 1 1 0-2h7a1 1 0 1 1 0 2"/>
        </g>
        <g fill="#484848">
            <path d="M112.1 62.462a7.25 7.25 0 0 1-2.421-.417L63.897 45.568a2.855 2.855 0 0 1-1.734-3.637 2.837 2.837 0 0 1 1.46-1.623 2.835 2.835 0 0 1 2.18-.115l8.032 2.84a.999.999 0 1 1-.666 1.886l-8.032-2.841a.854.854 0 0 0-1.088.519.856.856 0 0 0 .52 1.089l45.782 16.476a5.253 5.253 0 0 0 5.89-1.726l3.675-4.72-.592-.295a1.1 1.1 0 0 0-.681.015l-6.626 3.583a1.007 1.007 0 0 1-.828.055l-10.952-4.123a.998.998 0 0 1-.583-1.288.996.996 0 0 1 1.288-.583l10.525 3.962 6.284-3.398a.918.918 0 0 1 .106-.05 3.089 3.089 0 0 1 2.18-.043.858.858 0 0 1 .112.048l1.753.87a.997.997 0 0 1 .344 1.51l-4.427 5.685a7.247 7.247 0 0 1-5.72 2.798"/>
            <path d="M95.179 53.548a1 1 0 0 1-.176-1.984l14.636-2.63c.939-.11 1.549-.436 1.548-.805-.001-.393-.576-.998-1.654-1.13l-23.977.042a.81.81 0 0 1-.344-.06l-11.41-4.154a4.581 4.581 0 0 0-4.032.502 1 1 0 1 1-1.106-1.666 6.583 6.583 0 0 1 5.815-.718l11.25 4.096L109.588 45c.016-.02.07 0 .108.006 2.287.243 3.488 1.75 3.492 3.116.004 1.17-.851 2.518-3.26 2.79l-14.57 2.62a.982.982 0 0 1-.178.016M227.554 83h-34.972a149.336 149.336 0 0 1-54.503-10.258l-14.888-5.81a1 1 0 0 1 .726-1.864l14.889 5.811A147.344 147.344 0 0 0 192.582 81h34.972a1 1 0 1 1 0 2"/>
            <path d="M146.554 71c-.12 0-.241-.021-.36-.066l-13-5a1.002 1.002 0 0 1-.574-1.293c.2-.516.776-.77 1.293-.575l13 5c.515.199.773.778.575 1.293a1.002 1.002 0 0 1-.934.641"/>
        </g>
    </g>
</svg>
