<svg xmlns="http://www.w3.org/2000/svg" xmlns:xlink="http://www.w3.org/1999/xlink" width="303" height="63" viewBox="0 0 303 63">
    <defs>
        <path id="a" d="M0 63h302.43V0H0z"/>
    </defs>
    <g fill="none" fill-rule="evenodd">
        <path fill="#FFF" d="M59.668 39.667c.871 0 1.684-.232 2.412-.607C58.693 52.805 46.29 63 31.5 63 14.104 63 0 48.896 0 31.5S14.104 0 31.5 0c14.79 0 27.193 10.195 30.58 23.94a5.247 5.247 0 0 0-2.412-.607l-7.158-.685v-.275a2.883 2.883 0 0 1-2.883-2.883h-.275l-.685-7.158C48.667 9.399 46.268 7 43.334 7h-5.668c-2.934 0-5.333 2.399-5.333 5.332l-.685 7.158h-.275a2.883 2.883 0 0 1-2.883 2.883v.275l-7.158.685c-2.933 0-5.332 2.399-5.332 5.333v5.668c0 2.934 2.399 5.333 5.332 5.333l7.158.685v.275a2.883 2.883 0 0 1 2.883 2.883h.275l.685 7.158c0 2.933 2.399 5.332 5.333 5.332h5.668c2.934 0 5.333-2.399 5.333-5.332l.685-7.158h.275a2.883 2.883 0 0 1 2.883-2.883v-.275l7.158-.685zM84.821 23.001l.214 2.514a6.43 6.43 0 0 1 2.324-2.118c.932-.499 2.01-.748 3.233-.748 1.234 0 2.291.27 3.17.809.877.539 1.542 1.354 1.994 2.443.593-1.019 1.365-1.816 2.315-2.39.95-.574 2.066-.862 3.35-.862 1.898 0 3.397.665 4.496 1.996 1.097 1.33 1.646 3.36 1.646 6.09v11.286h-5.2V30.718c0-1.524-.237-2.584-.712-3.182-.476-.597-1.182-.896-2.119-.896-.736 0-1.375.161-1.915.483-.54.322-.97.771-1.29 1.345 0 .222.005.413.016.571.012.158.018.319.018.483v12.499h-5.183V30.718c0-1.488-.237-2.54-.71-3.155-.476-.616-1.189-.923-2.139-.923-.7 0-1.315.132-1.843.395a3.53 3.53 0 0 0-1.309 1.116v13.87h-5.182v-19.02h4.826zM121.026 26.605c-1.045 0-1.85.354-2.413 1.063-.565.709-.905 1.65-1.025 2.822l.037.088h6.34v-.387c0-1.113-.232-1.99-.695-2.628-.463-.64-1.21-.958-2.244-.958m.34 15.784c-2.875 0-5.119-.87-6.734-2.61-1.614-1.74-2.42-3.982-2.42-6.724v-.703c0-2.847.782-5.18 2.35-6.995 1.567-1.816 3.722-2.72 6.464-2.707 2.59 0 4.574.782 5.958 2.347 1.383 1.564 2.074 3.67 2.074 6.319v2.653h-11.487l-.053.106c.082 1.3.484 2.355 1.202 3.164.718.809 1.784 1.214 3.197 1.214 1.163 0 2.152-.119 2.965-.353a12.2 12.2 0 0 0 2.52-1.072l1.407 3.165c-.772.62-1.816 1.142-3.135 1.564-1.317.422-2.754.633-4.309.633M137.927 33.038c0 1.664.285 2.974.854 3.93.57.954 1.497 1.431 2.779 1.431.748 0 1.4-.149 1.959-.448a3.611 3.611 0 0 0 1.372-1.309v-8.104a3.98 3.98 0 0 0-1.363-1.397c-.552-.334-1.197-.5-1.932-.5-1.271 0-2.2.555-2.787 1.668-.588 1.114-.882 2.567-.882 4.36v.37zm-5.183-.369c0-3 .657-5.42 1.968-7.26 1.312-1.84 3.16-2.76 5.548-2.76.962 0 1.828.205 2.6.616.772.41 1.449.996 2.03 1.757V14.6h5.219V42.02h-4.435l-.445-2.337c-.606.878-1.324 1.55-2.156 2.012-.831.463-1.78.695-2.85.695-2.361 0-4.2-.856-5.511-2.567-1.311-1.71-1.968-3.972-1.968-6.785v-.369z"/>
        <mask id="b" fill="#fff">
            <use xlink:href="#a"/>
        </mask>
        <path fill="#2F664E" d="M158.253 42.021h3.508v-19.02h-3.508v19.02zm0-23.889h3.508v-3.533h-3.508v3.533zM171.752 23.001l.249 2.83c.641-1.008 1.445-1.79 2.413-2.347.968-.556 2.068-.835 3.304-.835 2.077 0 3.686.601 4.826 1.802 1.14 1.201 1.71 3.056 1.71 5.564v12.006h-3.509V30.085c0-1.676-.335-2.865-1.006-3.568-.671-.703-1.695-1.055-3.072-1.055-1.08 0-1.998.214-2.752.642a4.677 4.677 0 0 0-1.789 1.801v14.116h-3.509v-19.02h3.135zM198.465 39.683c1.08 0 2.024-.354 2.832-1.063.807-.71 1.21-1.58 1.21-2.611h3.17l.055.106c.046 1.64-.665 3.096-2.138 4.368-1.473 1.27-3.182 1.907-5.13 1.907-2.706 0-4.796-.908-6.27-2.725-1.47-1.816-2.207-4.078-2.207-6.785v-.738c0-2.684.74-4.937 2.218-6.76 1.478-1.821 3.565-2.732 6.26-2.732 2.148 0 3.909.656 5.28 1.969 1.37 1.312 2.033 2.923 1.987 4.834l-.037.105h-3.187c0-1.16-.383-2.147-1.15-2.962-.765-.814-1.73-1.222-2.893-1.222-1.722 0-2.978.66-3.767 1.978-.79 1.318-1.184 2.915-1.184 4.79v.738c0 1.91.389 3.522 1.166 4.834.778 1.313 2.04 1.969 3.785 1.969M211.642 42.021h3.508V14.599h-3.508zM234.241 39.208c-.605 1.02-1.384 1.805-2.333 2.355-.95.551-2.049.827-3.295.827-2.1 0-3.74-.662-4.916-1.987-1.175-1.324-1.763-3.386-1.763-6.187V23.001h3.51v11.25c0 2.027.302 3.422.907 4.184.606.761 1.55 1.142 2.831 1.142 1.247 0 2.278-.249 3.091-.747.813-.498 1.427-1.204 1.843-2.118V23.001h3.51v19.02h-3.154l-.23-2.813zM246.902 33.231c0 1.922.397 3.46 1.193 4.614.795 1.155 2.031 1.732 3.704 1.732 1.045 0 1.924-.235 2.636-.703.713-.469 1.294-1.125 1.745-1.969v-8.877a5.353 5.353 0 0 0-1.754-1.872c-.718-.463-1.582-.695-2.59-.695-1.687 0-2.93.686-3.732 2.057s-1.202 3.152-1.202 5.344v.37zm-3.509-.369c0-3.059.662-5.526 1.987-7.4 1.323-1.876 3.178-2.813 5.565-2.813 1.128 0 2.128.205 3.001.615a6.135 6.135 0 0 1 2.234 1.793V14.598h3.51V42.02H257l-.535-2.408c-.628.914-1.407 1.605-2.333 2.074-.925.47-2 .703-3.223.703-2.35 0-4.192-.84-5.52-2.522-1.33-1.682-1.996-3.894-1.996-6.636v-.369zM273.812 25.374c-1.225 0-2.236.466-3.038 1.397-.8.932-1.29 2.124-1.469 3.578l.036.087h8.692v-.281c0-1.383-.346-2.525-1.034-3.427-.689-.903-1.75-1.354-3.188-1.354m.553 17.016c-2.767 0-4.924-.873-6.474-2.62-1.55-1.746-2.325-4.042-2.325-6.89v-.774c0-2.73.8-4.989 2.396-6.776 1.596-1.787 3.546-2.681 5.85-2.681 2.577 0 4.51.791 5.798 2.373 1.288 1.582 1.932 3.686 1.932 6.311v1.828h-12.325l-.053.088c0 1.91.428 3.46 1.282 4.649.855 1.19 2.161 1.785 3.918 1.785 1.188 0 2.23-.167 3.127-.501.895-.334 1.664-.794 2.305-1.38l1.371 2.25c-.688.656-1.596 1.21-2.724 1.661-1.129.451-2.488.677-4.079.677M289.643 33.231c0 1.922.397 3.46 1.193 4.614.795 1.155 2.03 1.732 3.704 1.732 1.045 0 1.924-.235 2.636-.703.713-.469 1.294-1.125 1.745-1.969v-8.877a5.353 5.353 0 0 0-1.754-1.872c-.718-.463-1.582-.695-2.59-.695-1.687 0-2.93.686-3.732 2.057s-1.202 3.152-1.202 5.344v.37zm-3.51-.369c0-3.059.663-5.526 1.988-7.4 1.323-1.876 3.178-2.813 5.565-2.813 1.128 0 2.128.205 3 .615a6.135 6.135 0 0 1 2.235 1.793V14.598h3.509V42.02h-2.69l-.534-2.408c-.628.914-1.407 1.605-2.333 2.074-.925.47-2.001.703-3.223.703-2.351 0-4.192-.84-5.521-2.522-1.33-1.682-1.995-3.894-1.995-6.636v-.369z" mask="url(#b)"/>
    </g>
</svg>
