<svg xmlns="http://www.w3.org/2000/svg" width="60" height="60" viewBox="0 0 60 60">
    <g fill="none" fill-rule="evenodd">
        <path fill="#5F87C0" d="M16 53c.265 0 .52.105.707.293l4.368 4.367 4.206-4.354a.993.993 0 0 1 .71-.306H26c.265 0 .52.105.707.293L31 57.586l4.293-4.293a.999.999 0 0 1 1.414 0L41 57.586l4.293-4.293A.997.997 0 0 1 46 53h.004a.996.996 0 0 1 .709.299L50 56.643V3.472l-3.299 3.241a.999.999 0 0 1-1.408-.006L41 2.414l-4.293 4.293a.999.999 0 0 1-1.414 0L31 2.414l-4.293 4.293a.999.999 0 0 1-1.414 0L21 2.414l-4.293 4.293a.999.999 0 0 1-1.408.006L12 3.472v53.171l3.287-3.344A.947.947 0 0 1 16 53m35 7.087a1 1 0 0 1-.713-.299l-4.293-4.368-4.287 4.287a.999.999 0 0 1-1.414 0L36 55.414l-4.293 4.293a.999.999 0 0 1-1.414 0l-4.281-4.28-4.206 4.354a.993.993 0 0 1-.71.306c-.243.036-.526-.103-.716-.293l-4.374-4.374-4.293 4.368c-.284.29-.716.377-1.092.225a1.003 1.003 0 0 1-.621-.926v-58a1 1 0 0 1 1.701-.713l4.293 4.218L20.293.293a.999.999 0 0 1 1.414 0L26 4.586 30.293.293a.999.999 0 0 1 1.414 0L36 4.586 40.293.293a.999.999 0 0 1 1.414 0l4.299 4.299L50.299.374A1.001 1.001 0 0 1 52 1.087v58a1.003 1.003 0 0 1-1 1"/>
        <path fill="#D8D8D8" d="M38.74 16H18.564a1 1 0 1 1 0-2H38.74a1 1 0 1 1 0 2M28.652 24H18.565a1 1 0 1 1 0-2h10.087a1 1 0 1 1 0 2M28.652 32H18.565a1 1 0 1 1 0-2h10.087a1 1 0 1 1 0 2M26.13 40h-7.565a1 1 0 1 1 0-2h7.565a1 1 0 1 1 0 2"/>
        <path fill="#24B985" d="M40 48a1 1 0 0 1-1-1v-3.044a1 1 0 1 1 2 0V47a1 1 0 0 1-1 1M40 29.826a1 1 0 0 1-1-1V26a1 1 0 1 1 2 0v2.826a1 1 0 0 1-1 1"/>
        <path fill="#24B985" d="M40 44.956a4.788 4.788 0 0 1-4.783-4.782 1 1 0 1 1 2 0A2.785 2.785 0 0 0 40 42.956a2.785 2.785 0 0 0 2.782-2.782A2.785 2.785 0 0 0 40 37.392a4.788 4.788 0 0 1-4.783-4.784A4.788 4.788 0 0 1 40 27.826a4.788 4.788 0 0 1 4.782 4.782 1 1 0 1 1-2 0A2.785 2.785 0 0 0 40 29.826a2.785 2.785 0 0 0-2.783 2.782A2.786 2.786 0 0 0 40 35.392a4.787 4.787 0 0 1 4.782 4.782A4.788 4.788 0 0 1 40 44.956"/>
    </g>
</svg>
