<svg xmlns="http://www.w3.org/2000/svg" width="60" height="60" viewBox="0 0 60 60">
    <g fill="none" fill-rule="evenodd" stroke-linecap="round" stroke-width="2">
        <path stroke="#D8D8D8" d="M22.435 23.7c0-1.394 1.13-1.262 2.52-1.262 1.395 0 2.524-.132 2.524 1.261M32.522 23.7c0-1.394 1.129-1.262 2.522-1.262 1.393 0 2.522-.132 2.522 1.261M31 41.348V59"/>
        <path stroke="#5F87C0" d="M23.405 38.826C12.57 40.661 1 40.286 1 50.792V59h58v-8.208c0-10.51-11.286-10.064-22.517-11.966M45.13 23.094l1.281-9.485S47.672.999 30.02.999C12.367 1 13.63 13.61 13.63 13.61l1.24 9.459"/>
        <path stroke="#5F87C0" stroke-linejoin="round" d="M30 41.348c3.782 0 12.608-5.043 12.608-12.608 3.783 0 3.783-7.566 0-7.566l-1.251-6.304c-10.086 0-10.082-3.783-11.342-5.043-1.261 1.26-1.269 5.043-11.356 5.043l-1.268 6.304c-3.783 0-3.783 7.566 0 7.566 0 7.565 8.826 12.608 12.609 12.608z"/>
        <path stroke="#24B985" d="M23 50a4 4 0 1 1-8 0 4 4 0 0 1 8 0zM19 39.482V46M42 39.636V44M39 54c-1.261 0-2-.919-2-2v-5c0-2-.044-3 5-3M45.13 53.956c1.261 0 1.87-.875 1.87-1.957v-4c0-2.48 0-4-5-4"/>
    </g>
</svg>
